<svg id="Layer_1" data-name="Layer 1" xmlns="http://www.w3.org/2000/svg" width="256" height="256" viewBox="0 0 256 256"><title>brachiosaurus</title><path d="M61.5,165.3a30.2,30.2,0,0,0-7.5.9h0c0,.3.3.6.8.9a6.7,6.7,0,0,0,1.9,1l2.5,1,2.8.8,2.3.6,1.4.2h2.1l2.4-.4,2.3-.8a5.6,5.6,0,0,0,1.6-1.4A27.9,27.9,0,0,0,68,166,35.9,35.9,0,0,0,61.5,165.3Z"/><path d="M128,5A122.7,122.7,0,1,0,250.7,127.7,122.7,122.7,0,0,0,128,5Zm80,67.7V73a7.8,7.8,0,0,1-.1,1.3l-.3,2.1-.3,2c-.2.6-.2,1-.3,1.3a8.9,8.9,0,0,0-.8,1.7c-.3.7-.5,1.3-.7,1.9l-.5,2-.7,1.8c-.5,1.1-1.1,2.1-1.6,3a26.9,26.9,0,0,0-1.6,2.9l-19.2,26.8-.3.5c0,.1-.1.2-.2.3s-.2.1-.3.3l-.4.4-1.6,2.2-2,2.8-2.1,3.1a26.9,26.9,0,0,0-1.9,3.2c-.6,1-1,2-1.4,2.8a8,8,0,0,0-.5,2.3c0,.3-.2.5-.2.7s.2.4.2.6h0a.3.3,0,0,0-.3.3c0,.3.1.4.3.4v9.8a4.4,4.4,0,0,1-.2,1c-.2.4-.2.7-.4,1.1s-.5.8-.6,1.2-.4.8-.4,1.1v1.6a.5.5,0,0,1,0,.4c-.2.2-.2.5-.4.7l-.7.8a1.1,1.1,0,0,1-.5.4v.4c0,.1.7.2.8.4s.8.3.8.4v2.7a18.6,18.6,0,0,1-.6,3.4c-.2,1.2-.5,2.3-.7,3.4s-.5,2.3-.7,3.4a19.5,19.5,0,0,0-.3,3.4c0,2,.1,4.1.3,6.1a38.3,38.3,0,0,0,1,5.9,29.2,29.2,0,0,0,2.1,5.6,19.7,19.7,0,0,0,3.3,5,3.6,3.6,0,0,1-1.2.8l-1.6.7-1.7.4h-1.9l-.9-.2-1.2-.3-.9-.2-.8-.2-.7-.2-.6-.5-.3-.7a25.1,25.1,0,0,0,.1-3.9,28.3,28.3,0,0,0-.3-4.1c-.1-1.4-.3-2.8-.4-4.1l-.6-4-.2-.6a.8.8,0,0,0-.2-.6c.1-1,.1-2.2.1-3.5a25.4,25.4,0,0,0-.1-3.9,23.2,23.2,0,0,0-.6-3.8,12,12,0,0,0-1.3-3.3,3,3,0,0,0-1.4,1.7,17.3,17.3,0,0,0-.8,2.7c-.2.9-.2,1.8-.4,2.8s-.9,1.6-.9,2.2v7.3c0,2.7-.2,5.4-.1,8s.2,5.2.5,7.9l.4.3.8.6.8.7a.9.9,0,0,1,.3.6c0,.2-.2.5-.8.8l-1.7.8-2,.8-1.2.4H152l-4.6-2.5c-.2-.1-.2-.4-.2-.5v-.5a27.9,27.9,0,0,1,0-2.9,13.8,13.8,0,0,0,.1-2.9,22.2,22.2,0,0,0-.3-3.7c-.1-1.2-.3-2.4-.5-3.6l-.6-3.6a23.6,23.6,0,0,1-.2-3.8c0-1.2,0-2.2.1-3.2a24.8,24.8,0,0,1,.3-2.7c.2-.9.3-1.7.5-2.7s.4-1.9.6-3.1.1-.3,0-.7a1.8,1.8,0,0,1-.1-.6,5.5,5.5,0,0,0-1.8.2l-1.8.5-1.9.6-1.8.5h-1.3l-1.1.2h-.9l-1-.2h-1.8c-1.7,0-3.4.1-5.1,0a41,41,0,0,0-5-.2h-2.4a4,4,0,0,0-2.3.8c.1,1.7.1,3.4.1,5s-.1,3.3-.2,5l-.3,4.9c0,1.6-.1,3.3-.1,5v4.9c0,.5.6,1.1,1.1,1.6l1.3,1.7a6.6,6.6,0,0,1,1.2,1.7,3.4,3.4,0,0,1,.5,1.7v.4a10.4,10.4,0,0,1-3.9.4c0,.4,0,.7-.3.7h-2.6a7.8,7.8,0,0,1-2.2-.2,3.8,3.8,0,0,1-1.7-.8,2.2,2.2,0,0,1-.8-1.8,6.9,6.9,0,0,1,.2-1.3l.3-1.2.3-1.3a5.3,5.3,0,0,0,.1-1.3,22.2,22.2,0,0,0-.3-3.7c-.1-1.2-.4-2.3-.6-3.5s-.5-2.5-.8-3.7a26.2,26.2,0,0,1-.7-3.8h-.4c-.2,0-.4.7-.5.9s-.2.5-.4.6l-.3.6-1.5,2.2-1.4,2.1a24.4,24.4,0,0,0-1,2.4,7.5,7.5,0,0,0-.4,2.6,5,5,0,0,0,.3,1.6,6.1,6.1,0,0,0,.7,1.4l.7,1.1a1.5,1.5,0,0,1,.3.6.8.8,0,0,1-.4.7l-1,.4a5,5,0,0,1-1.3.3H98.8l-1.1-.4a2.4,2.4,0,0,1-.6-.8,9.1,9.1,0,0,1-.6-1.6,14.2,14.2,0,0,0-.5-1.6,7.8,7.8,0,0,1-.2-1.6,2.7,2.7,0,0,1,.4-1.4,6,6,0,0,1,.9-1.5c.3-.6.7-1.1,1-1.6a10,10,0,0,0,.8-1.4c.8-1.8,1.6-3.7,2.3-5.6l2.4-5.7.5-.8.5-.7a1.6,1.6,0,0,0,.4-.7,1.9,1.9,0,0,0,.2-.8.6.6,0,0,0-.3-.6h-1.3L95,172.5a3.2,3.2,0,0,1-1.3.5l-1.7.4-1.5.5a1.2,1.2,0,0,0-.7,1.1,1.9,1.9,0,0,0,.2.8l.7.7.8.5a1.9,1.9,0,0,1,.7.6l-.4.4-1.2-.8-1.4-.8a4.2,4.2,0,0,0-1.4-.6,3.9,3.9,0,0,0-1.5-.2,12.2,12.2,0,0,0-3.7.5l-3.8,1a28.5,28.5,0,0,1-3.9,1.1,14.4,14.4,0,0,1-4.1.5l-3.3-.3c-1.5-.3-3.1-.6-4.8-1.1l-5.2-1.7a36.1,36.1,0,0,1-4.8-2.2,12.8,12.8,0,0,1-3.6-2.6,4,4,0,0,1-1.4-2.8,4.4,4.4,0,0,1,1.1-3.2,6.7,6.7,0,0,1,2.7-1.6,12,12,0,0,1,3.3-.1,31.1,31.1,0,0,1,3.3.3h3.8a3.1,3.1,0,0,1,1.3-.2h2.2l2.5.3,1.9.3a5.3,5.3,0,0,1,1.8.5l1.8.8,1.7.7a6.5,6.5,0,0,0,2,.4,8.2,8.2,0,0,0,3.8-1.1,32.6,32.6,0,0,0,4-2.4l3.8-3,3.1-2.7,1.8-1.2,1.8-1,1.7-1.2a7.9,7.9,0,0,0,1.4-1.7,37,37,0,0,0,2.5-4.3,30.7,30.7,0,0,1,2.6-4.3l1.3-1.3,1.5-.9,1.6-.9,1.5-.9c1.2-.8,2.4-1.6,3.5-2.5l3.3-2.8,3.3-2.9a30.4,30.4,0,0,1,3.3-2.8,21.2,21.2,0,0,1,3.6-2.1l3.8-1.8,2.4-1.2,2.4-1.3,2.5-1.1a11.1,11.1,0,0,1,2.6-.7l21.6-3.2a9,9,0,0,0,3.4-1.1,16,16,0,0,0,3.2-2.1,20.1,20.1,0,0,0,3.1-2.8,41.2,41.2,0,0,0,2.8-3.1l2.6-3.1,2.2-2.7,7.5-8.7.3-.2.5-.6.5-.5.3-.2,1.9-3.2h.3l.3-.3.4-.2.2-.2.4-.4.4-.4,1.2-1.6,1.3-1.9,1.3-1.9c.3-.6.7-1.2.9-1.7a10.8,10.8,0,0,0,.8-1.9l.7-2.1c.2-.7.5-1.4.7-2.1s1-1.4,1-2.1V65.9a5.3,5.3,0,0,0-1.1-3,9.9,9.9,0,0,0-2.5-2.5,14.1,14.1,0,0,0-3.2-1.7,8,8,0,0,0-3.1-.7,20,20,0,0,0-5.6.7,11.3,11.3,0,0,0-5,2.5,18.4,18.4,0,0,0-1.4,1.4l-1.5,1.8-1.7,1.9a15.3,15.3,0,0,1-1.8,1.8l-1.8,1.3a3.4,3.4,0,0,1-1.7.5,1.7,1.7,0,0,1-1.6-1.6v-.4a2,2,0,0,0,.1-.5,2.5,2.5,0,0,1,.2-.7c0-.3.1-.5.1-.8a.8.8,0,0,0,.1-.4,3.8,3.8,0,0,0-.3-1.6,5,5,0,0,0-.5-1.3,6.7,6.7,0,0,1-.6-1.2,2.7,2.7,0,0,1-.3-1.2l.9-.2.4-.6c.1-.3.3-.5.4-.8a1.6,1.6,0,0,1,.8-.5c0-.1.2-.1.5-.1H172c.4,0,.8-.1.9-.4l.7-.6h.4c.1,0,.1.1.2.3l.2.4c0-.2.2-.3.4-.3l.6-.4,1.1-.6,1.3-.8,1.3-.8,1-.6.6-.4,2-1.2a5.8,5.8,0,0,1,1.7-.6l1.9-.2h6.2a3.4,3.4,0,0,0,1.4.5l1.5.4a4,4,0,0,1,1.5.3l1.5.4a15.3,15.3,0,0,1,4.4,2.9,17.7,17.7,0,0,1,3.1,4.1,15.7,15.7,0,0,1,1.6,4.9,22.9,22.9,0,0,1,.5,5.2v2.3Z"/></svg>