<svg xmlns="http://www.w3.org/2000/svg"><symbol id="brachiosaurus" viewBox="0 0 256 256"><path d="M61.5 165.3a30.2 30.2 0 0 0-7.5.9c0 .3.3.6.8.9a6.7 6.7 0 0 0 1.9 1l2.5 1 2.8.8 2.3.6 1.4.2h2.1l2.4-.4 2.3-.8a5.6 5.6 0 0 0 1.6-1.4A27.9 27.9 0 0 0 68 166a35.9 35.9 0 0 0-6.5-.7z"/><path d="M128 5a122.7 122.7 0 1 0 122.7 122.7A122.7 122.7 0 0 0 128 5zm80 67.7v.3a7.8 7.8 0 0 1-.1 1.3l-.3 2.1-.3 2c-.2.6-.2 1-.3 1.3a8.9 8.9 0 0 0-.8 1.7c-.3.7-.5 1.3-.7 1.9l-.5 2-.7 1.8c-.5 1.1-1.1 2.1-1.6 3a26.9 26.9 0 0 0-1.6 2.9l-19.2 26.8-.3.5c0 .1-.1.2-.2.3s-.2.1-.3.3l-.4.4-1.6 2.2-2 2.8-2.1 3.1a26.9 26.9 0 0 0-1.9 3.2c-.6 1-1 2-1.4 2.8a8 8 0 0 0-.5 2.3c0 .3-.2.5-.2.7s.2.4.2.6a.3.3 0 0 0-.3.3c0 .3.1.4.3.4v9.8a4.4 4.4 0 0 1-.2 1c-.2.4-.2.7-.4 1.1s-.5.8-.6 1.2-.4.8-.4 1.1v1.6a.5.5 0 0 1 0 .4c-.2.2-.2.5-.4.7l-.7.8a1.1 1.1 0 0 1-.5.4v.4c0 .1.7.2.8.4s.8.3.8.4v2.7a18.6 18.6 0 0 1-.6 3.4c-.2 1.2-.5 2.3-.7 3.4s-.5 2.3-.7 3.4a19.5 19.5 0 0 0-.3 3.4c0 2 .1 4.1.3 6.1a38.3 38.3 0 0 0 1 5.9 29.2 29.2 0 0 0 2.1 5.6 19.7 19.7 0 0 0 3.3 5 3.6 3.6 0 0 1-1.2.8l-1.6.7-1.7.4h-1.9l-.9-.2-1.2-.3-.9-.2-.8-.2-.7-.2-.6-.5-.3-.7a25.1 25.1 0 0 0 .1-3.9 28.3 28.3 0 0 0-.3-4.1c-.1-1.4-.3-2.8-.4-4.1l-.6-4-.2-.6a.8.8 0 0 0-.2-.6c.1-1 .1-2.2.1-3.5a25.4 25.4 0 0 0-.1-3.9 23.2 23.2 0 0 0-.6-3.8 12 12 0 0 0-1.3-3.3 3 3 0 0 0-1.4 1.7 17.3 17.3 0 0 0-.8 2.7c-.2.9-.2 1.8-.4 2.8s-.9 1.6-.9 2.2v7.3c0 2.7-.2 5.4-.1 8s.2 5.2.5 7.9l.4.3.8.6.8.7a.9.9 0 0 1 .3.6c0 .2-.2.5-.8.8l-1.7.8-2 .8-1.2.4h-.2l-4.6-2.5c-.2-.1-.2-.4-.2-.5v-.5a27.9 27.9 0 0 1 0-2.9 13.8 13.8 0 0 0 .1-2.9 22.2 22.2 0 0 0-.3-3.7c-.1-1.2-.3-2.4-.5-3.6l-.6-3.6a23.6 23.6 0 0 1-.2-3.8c0-1.2 0-2.2.1-3.2a24.8 24.8 0 0 1 .3-2.7c.2-.9.3-1.7.5-2.7s.4-1.9.6-3.1.1-.3 0-.7a1.8 1.8 0 0 1-.1-.6 5.5 5.5 0 0 0-1.8.2l-1.8.5-1.9.6-1.8.5h-1.3l-1.1.2h-.9l-1-.2h-1.8c-1.7 0-3.4.1-5.1 0a41 41 0 0 0-5-.2h-2.4a4 4 0 0 0-2.3.8c.1 1.7.1 3.4.1 5s-.1 3.3-.2 5l-.3 4.9c0 1.6-.1 3.3-.1 5v4.9c0 .5.6 1.1 1.1 1.6l1.3 1.7a6.6 6.6 0 0 1 1.2 1.7 3.4 3.4 0 0 1 .5 1.7v.4a10.4 10.4 0 0 1-3.9.4c0 .4 0 .7-.3.7h-2.6a7.8 7.8 0 0 1-2.2-.2 3.8 3.8 0 0 1-1.7-.8 2.2 2.2 0 0 1-.8-1.8 6.9 6.9 0 0 1 .2-1.3l.3-1.2.3-1.3a5.3 5.3 0 0 0 .1-1.3 22.2 22.2 0 0 0-.3-3.7c-.1-1.2-.4-2.3-.6-3.5s-.5-2.5-.8-3.7a26.2 26.2 0 0 1-.7-3.8h-.4c-.2 0-.4.7-.5.9s-.2.5-.4.6l-.3.6-1.5 2.2-1.4 2.1a24.4 24.4 0 0 0-1 2.4 7.5 7.5 0 0 0-.4 2.6 5 5 0 0 0 .3 1.6 6.1 6.1 0 0 0 .7 1.4l.7 1.1a1.5 1.5 0 0 1 .3.6.8.8 0 0 1-.4.7l-1 .4a5 5 0 0 1-1.3.3h-4.1l-1.1-.4a2.4 2.4 0 0 1-.6-.8 9.1 9.1 0 0 1-.6-1.6 14.2 14.2 0 0 0-.5-1.6 7.8 7.8 0 0 1-.2-1.6 2.7 2.7 0 0 1 .4-1.4 6 6 0 0 1 .9-1.5c.3-.6.7-1.1 1-1.6a10 10 0 0 0 .8-1.4c.8-1.8 1.6-3.7 2.3-5.6l2.4-5.7.5-.8.5-.7a1.6 1.6 0 0 0 .4-.7 1.9 1.9 0 0 0 .2-.8.6.6 0 0 0-.3-.6h-1.3l-8.6 2.7a3.2 3.2 0 0 1-1.3.5l-1.7.4-1.5.5a1.2 1.2 0 0 0-.7 1.1 1.9 1.9 0 0 0 .2.8l.7.7.8.5a1.9 1.9 0 0 1 .7.6l-.4.4-1.2-.8-1.4-.8a4.2 4.2 0 0 0-1.4-.6 3.9 3.9 0 0 0-1.5-.2 12.2 12.2 0 0 0-3.7.5l-3.8 1a28.5 28.5 0 0 1-3.9 1.1 14.4 14.4 0 0 1-4.1.5l-3.3-.3c-1.5-.3-3.1-.6-4.8-1.1l-5.2-1.7a36.1 36.1 0 0 1-4.8-2.2 12.8 12.8 0 0 1-3.6-2.6 4 4 0 0 1-1.4-2.8 4.4 4.4 0 0 1 1.1-3.2 6.7 6.7 0 0 1 2.7-1.6 12 12 0 0 1 3.3-.1 31.1 31.1 0 0 1 3.3.3h3.8a3.1 3.1 0 0 1 1.3-.2h2.2l2.5.3 1.9.3a5.3 5.3 0 0 1 1.8.5l1.8.8 1.7.7a6.5 6.5 0 0 0 2 .4 8.2 8.2 0 0 0 3.8-1.1 32.6 32.6 0 0 0 4-2.4l3.8-3 3.1-2.7 1.8-1.2 1.8-1 1.7-1.2a7.9 7.9 0 0 0 1.4-1.7 37 37 0 0 0 2.5-4.3 30.7 30.7 0 0 1 2.6-4.3l1.3-1.3 1.5-.9 1.6-.9 1.5-.9c1.2-.8 2.4-1.6 3.5-2.5l3.3-2.8 3.3-2.9a30.4 30.4 0 0 1 3.3-2.8 21.2 21.2 0 0 1 3.6-2.1l3.8-1.8 2.4-1.2 2.4-1.3 2.5-1.1a11.1 11.1 0 0 1 2.6-.7l21.6-3.2a9 9 0 0 0 3.4-1.1 16 16 0 0 0 3.2-2.1 20.1 20.1 0 0 0 3.1-2.8 41.2 41.2 0 0 0 2.8-3.1l2.6-3.1 2.2-2.7 7.5-8.7.3-.2.5-.6.5-.5.3-.2 1.9-3.2h.3l.3-.3.4-.2.2-.2.4-.4.4-.4 1.2-1.6 1.3-1.9 1.3-1.9c.3-.6.7-1.2.9-1.7a10.8 10.8 0 0 0 .8-1.9l.7-2.1c.2-.7.5-1.4.7-2.1s1-1.4 1-2.1v-5.9a5.3 5.3 0 0 0-1.1-3 9.9 9.9 0 0 0-2.5-2.5 14.1 14.1 0 0 0-3.2-1.7 8 8 0 0 0-3.1-.7 20 20 0 0 0-5.6.7 11.3 11.3 0 0 0-5 2.5 18.4 18.4 0 0 0-1.4 1.4l-1.5 1.8-1.7 1.9a15.3 15.3 0 0 1-1.8 1.8l-1.8 1.3a3.4 3.4 0 0 1-1.7.5 1.7 1.7 0 0 1-1.6-1.6v-.4a2 2 0 0 0 .1-.5 2.5 2.5 0 0 1 .2-.7c0-.3.1-.5.1-.8a.8.8 0 0 0 .1-.4 3.8 3.8 0 0 0-.3-1.6 5 5 0 0 0-.5-1.3 6.7 6.7 0 0 1-.6-1.2 2.7 2.7 0 0 1-.3-1.2l.9-.2.4-.6c.1-.3.3-.5.4-.8a1.6 1.6 0 0 1 .8-.5c0-.1.2-.1.5-.1h2.2c.4 0 .8-.1.9-.4l.7-.6h.4c.1 0 .1.1.2.3l.2.4c0-.2.2-.3.4-.3l.6-.4 1.1-.6 1.3-.8 1.3-.8 1-.6.6-.4 2-1.2a5.8 5.8 0 0 1 1.7-.6l1.9-.2h6.2a3.4 3.4 0 0 0 1.4.5l1.5.4a4 4 0 0 1 1.5.3l1.5.4a15.3 15.3 0 0 1 4.4 2.9 17.7 17.7 0 0 1 3.1 4.1 15.7 15.7 0 0 1 1.6 4.9 22.9 22.9 0 0 1 .5 5.2v2.3z"/></symbol><symbol id="micropachycephalosaurus" viewBox="0 0 256 256"><path d="M131.7 150c-.3 0-.4.2-.4.6h-.1c-.3 0-.4.1-.4.4s.1.6.4.6.4-.2.4-.6h.1c.3 0 .5-.1.5-.4s-.2-.6-.5-.6zm1.4-.8a3 3 0 0 0-.8.8h.3a1.9 1.9 0 0 0 1-.3 2.4 2.4 0 0 0 .9-.8h-.3a2.3 2.3 0 0 0-1.1.3zm3-2.5c-.3 0-.4.2-.4.6h-.2c-.2 0-.4.1-.4.5h-.1c-.3 0-.5.2-.5.6a.5.5 0 0 0 1 0c.3 0 .5-.2.5-.6h.1a.5.5 0 0 0 .5-.5c0-.4-.2-.6-.5-.6zm22.4-5.7l-1.3 1.4c.3.5.5.9.8 1l1.1.2a1.9 1.9 0 0 0 1.4-.5 5.2 5.2 0 0 0 1-1.1 10.1 10.1 0 0 0 .7-1.5c.2-.5.4-1.1.5-1.1h-3.3c-.2 0-.5 1-.9 1.6z"/><path d="M127.3 5A122.7 122.7 0 1 0 250 127.7 122.6 122.6 0 0 0 127.3 5zm92 72.8a3.3 3.3 0 0 1-1.5.3h-3.6a41.1 41.1 0 0 0-5 1.2 14.2 14.2 0 0 0-3.5 1.5 8.3 8.3 0 0 0-2.4 2.1 15.8 15.8 0 0 0-1.7 2.9 22.1 22.1 0 0 0-1.4 3.7c-.5 1.4-1 3.1-1.6 4.9s-.8 2.3-1.2 3.3l-1.2 3.1c-.4 1-.9 2-1.4 3l-1.7 3.1a23 23 0 0 1-2.6 4l-2.8 3.5-3 3.4-3 3.7a7.9 7.9 0 0 0-1.3 2.6 18.6 18.6 0 0 1-1 2.5 6.7 6.7 0 0 1-1.3 2.1 4.7 4.7 0 0 1-2.4 1.5 3.1 3.1 0 0 1-1.3.6l-1.9.6a15.2 15.2 0 0 1-2 .6l-1.3.4a3 3 0 0 1 .2 2 2 2 0 0 1-.9.9l-1.1.5a1.5 1.5 0 0 0-.9 1l-2.2 6.5a2.1 2.1 0 0 1-1 1.4 5.6 5.6 0 0 1-1.7.9h-1.9a9.7 9.7 0 0 1-1.8-.1h-.8c-.5 0-.9.2-1.1 0s-.4-.3-.4-.8a.4.4 0 0 1 .1-.3l.2-.3.2-.3c.1-.1.1-.2.1-.4a16.6 16.6 0 0 0-3.3 1.6l-3.3 1.9a35.3 35.3 0 0 1-3.2 2.1 26.9 26.9 0 0 1-3.2 1.9l-.9.5-1.1.5a3.6 3.6 0 0 0-.9.8 1.4 1.4 0 0 0-.5 1v.5l1.7 1.6 1.9 1.7 2 1.5a8.2 8.2 0 0 0 2 1.2l1.7.7 1.9.5 1.8.6a5.1 5.1 0 0 1 1.6.9 5.7 5.7 0 0 1 1.3 1.4 13.4 13.4 0 0 1 1.1 1.4 7.6 7.6 0 0 0 1.1 1.4 8.6 8.6 0 0 0 1.4 1.3l1.6.5 2 .7a5.1 5.1 0 0 1 1.8.9 2.1 2.1 0 0 1 .7 1.7v.5l-5.4 1.1-1.1.3a1.8 1.8 0 0 1-1.1.3h-.6c-.1-.2-.5-.4-1-.7l-1.7-.9-1.7-1-1-.7-.2-.2c0-.2-.1-.3-.3-.5l-.3-.5-.2-.5-2.2-4.3-1.1-.5-1.8-.7-2-.9-2.1-.9-1.7-.8-1.1-.6-2.7-1.5a16.4 16.4 0 0 1-2.5-2.1 8.3 8.3 0 0 1-1.9-2.6 6.3 6.3 0 0 1-1-3l-.6.2-.6.4-.8.6-1.6 1.1-2.1 1.4-2 1.3-1.7 1-.9.6-5.8 3.4a18.8 18.8 0 0 0-4.4 3.3 15.7 15.7 0 0 0-3.5 4.2c-.9 1.7-.7 3.8-2.3 6.4v1.6a9.3 9.3 0 0 0 1.1 4.3 6.5 6.5 0 0 0 2.1 2.5 7.7 7.7 0 0 0 2.5 1.4l2.5.9a5.6 5.6 0 0 1 1.9.9 5.2 5.2 0 0 1 .7 2h-12.8l-.2-.4-.3-.2h-.5l-.6-.3a2.9 2.9 0 0 1-1.2-1.5 12.9 12.9 0 0 1-.5-2.1c0-.8.2-1.5.2-2.3a18.1 18.1 0 0 0 .3-1.9v-1.4a4 4 0 0 1 .3-1.7c.2-.8.3-1.7.5-2.6s.5-2 .8-3.1.5-2.1.7-3 .5-1.8.7-2.6l.4-1.7c.2-.7.4-1.4.6-1.9a11.8 11.8 0 0 1 1-1.9 11.4 11.4 0 0 0 4.3-2.5 23.4 23.4 0 0 0 3.2-3.1l2.8-3.3a13.6 13.6 0 0 1 3.3-3l1.4-.7 2-.8 2.2-.9a13.9 13.9 0 0 0 2.1-1.1 6.4 6.4 0 0 0 1.5-1.3 2 2 0 0 0 .6-1.5V141a2.3 2.3 0 0 0-.6-1.2l-.8-.3-1.1-.5-1.2-.5-.7-.4a8.3 8.3 0 0 1-2-1.1l-2.5-1.9-2.5-1.5a3.7 3.7 0 0 0-1.7-.5h-7.6c-5.7 0-11.4-.1-17 .1s-11.3.2-17.1.2c-4.2 0-8.4-.2-12.4-.4a97.8 97.8 0 0 1-12-1.3 81.5 81.5 0 0 1-11.6-2.8 58.6 58.6 0 0 1-11.3-4.9l-1.4-.7-1.5-.9a5.3 5.3 0 0 1-1.3-1.3 3 3 0 0 1-.5-1.5 5.4 5.4 0 0 1 2 .4 11.7 11.7 0 0 1 2.4.9l2.1.9 1.4.6a47.2 47.2 0 0 0 4.5 1.6l4.9 1.4 4.9 1 4.7.3h25.6l2.5-.3 3.3-.6 3.5-.5 3.3-.6 2.5-.6 6.7-1.3c2.4-.4 4.7-.9 7.1-1.5s4.7-1.3 7-2.1a33.2 33.2 0 0 0 6.4-2.7l3.7-1.7c1.2-.5 2.4-1.1 3.7-1.5l3.8-1.3a23.5 23.5 0 0 1 4-.9h2.7l1.7-.2h1l1.9-.4 3.2-.7 3.9-.8 3.9-.9c1.2-.3 2.3-.9 3.2-1.1s1.5-.7 1.8-.7h6.4c2.6 0 5.1.5 7.6.7s5 .5 7.6.5a10.7 10.7 0 0 0 4.9-1.2 19.5 19.5 0 0 0 4.3-3.4 30.9 30.9 0 0 0 3.8-4.8 59.5 59.5 0 0 0 3.1-5.5 50.1 50.1 0 0 0 2.5-5.3c.7-1.8 1.2-3.3 1.7-4.7s.8-2.3 1.1-3.3.6-2.1.9-3 .8-1.8 1.2-2.6a7.7 7.7 0 0 1 1.7-1.9 7 7 0 0 1 2.5-1.5 12.7 12.7 0 0 1 3.7-.8h3c.7 1.6 1.7.9 2.8 1.3a21.3 21.3 0 0 1 3.5 1.4 15 15 0 0 1 2.8 1.8 2.6 2.6 0 0 1 1.2 2.1 2.1 2.1 0 0 1-.4 1.4 3.1 3.1 0 0 1-1.1.3z"/></symbol><symbol id="velociraptor" viewBox="0 0 256 256"><path d="M127.7 5a122.7 122.7 0 1 0 122.6 122.7A122.7 122.7 0 0 0 127.7 5zm106 111.9h-7.1c-2.9 0-5.9-.2-8.8-.4l-8.8-1-8.7-.9a88.3 88.3 0 0 0-8.9-.4 139 139 0 0 0-15.7.9 71.1 71.1 0 0 0-15.3 3.6L131 129.3a2.4 2.4 0 0 0-1.2 1.5 17.3 17.3 0 0 0-.8 2.7l-.6 2.7a8.5 8.5 0 0 1-.6 1.9 3.2 3.2 0 0 0 1.3 1.3l2.4 1.1 2.8 1.1 2.7 1.4a18 18 0 0 1 2 1.8 4.1 4.1 0 0 1 .8 2.4 1.7 1.7 0 0 1-.5 1.2 3.6 3.6 0 0 1-1.2.8l-1.5.7-1.6.8a5.8 5.8 0 0 0-1.2 1 2.4 2.4 0 0 0-.4 1.5 3.6 3.6 0 0 0 .7 2.4 7 7 0 0 0 1.9 1.5 17.1 17.1 0 0 0 2.3 1.3 6.8 6.8 0 0 1 2.1 1.7 13.5 13.5 0 0 1 1.9 3.3 25.3 25.3 0 0 1 1.2 3.6c.3 1.2.6 2.4.8 3.7s.1 2.5.2 3.8l1.3 1.2v6.9h.8l1 .2 1 .2.5.3a5.4 5.4 0 0 0 .1.8c0 .2-.1.5-.1.9a5.6 5.6 0 0 1-.4 1.2 1.8 1.8 0 0 1-.6.9.8.8 0 0 1-.8.3h-5c-.2 0-.5-.5-1-.8l-1.4-.8-1.5-.8c-.5-.3-.9-.8-1.2-.8h-5.9a4.4 4.4 0 0 1 .6-2.8 3.8 3.8 0 0 1 1.6-1.5 7.4 7.4 0 0 1 2.1-.7l2-.3a3.8 3.8 0 0 0 1.6-.6 1.5 1.5 0 0 0 .6-1.3v-.6l-.9-1.7a13.4 13.4 0 0 0-1.2-2.4 15.8 15.8 0 0 0-1.5-2.4 8.6 8.6 0 0 0-1.5-1.7 4.8 4.8 0 0 0-1.2-.8l-1.8-.9-1.7-1a1.9 1.9 0 0 1-.9-1.1 10.2 10.2 0 0 1-.9-2.8 28.3 28.3 0 0 0-1.1-3.1 7.2 7.2 0 0 0-1.6-2.5 3.9 3.9 0 0 0-2.8-1 22.5 22.5 0 0 0-5.8.8 26.9 26.9 0 0 0-5.6 2.1 32.1 32.1 0 0 0-4.8 3.4 22.7 22.7 0 0 0-3.8 4.4l-.3.2h-.2a.1.1 0 0 1-.1-.1l-.2-.3c0-.2-.1-.4-.1-.6s-.1-.5-.2-.6-.1-.3-.1-.4h-.3a1.3 1.3 0 0 0-1 .4l-.9 1.2-.8 1.2a2.1 2.1 0 0 1-.8 1 2.9 2.9 0 0 1-.6-1.6 7.1 7.1 0 0 1-.1-1.6 9 9 0 0 1 .4-2.8 27.6 27.6 0 0 1 .8-2.7 11.7 11.7 0 0 0 .9-2.4 15.2 15.2 0 0 0 .4-2.7h-4.7c0-1.6.2-1.7.6-2.3A7.5 7.5 0 0 1 97 150a7.2 7.2 0 0 1 2-.9l2.1-.3 2.9.2 2.8.5 2.8.4 2.8.2h2.3a3.3 3.3 0 0 0-1.7-1.3l-2.4-.4-2.6-.2a4.4 4.4 0 0 1-2.1-.2l-3.8-2.1h-.3a10.1 10.1 0 0 0-3 0 15.1 15.1 0 0 1-3 .1 8.3 8.3 0 0 1-2.9-.6l-2.6-1.4-2.5-1.3a4.8 4.8 0 0 0-2.8-.7v5.9l1.5-.2 1-.3.9-.5c.3-.2.3-.4.8-.6l.6-.2v2.7l1.9-.7c0 .1.2.3.2.5l.2.5a5.5 5.5 0 0 1-1.3 3.8 28.9 28.9 0 0 1-3.1 2.8 28.1 28.1 0 0 0-4.5-1.3l-4.6-.6v-7.5l-1.7.5-2 1a7.8 7.8 0 0 0-1.8 1.1c-.4.4-.9.8-.9 1.1v6.7a9.3 9.3 0 0 0 2.9-.3 6.7 6.7 0 0 0 1.7-.6 3.3 3.3 0 0 0 1.2-.5 2.7 2.7 0 0 1 1.2-.3h.3a1.5 1.5 0 0 1 .3.7 7.3 7.3 0 0 1 .5 1.2l.3 1.2a5.1 5.1 0 0 1 .2.9 4.6 4.6 0 0 1-.4 1.9 5.9 5.9 0 0 1-1 1.7 3.7 3.7 0 0 1-1.5 1.3 3.2 3.2 0 0 1-1.8.6h-1l-2.9-.4-3.5-.7a12.5 12.5 0 0 1-3.1-1.2 2.5 2.5 0 0 1-1.4-2v-11.4c0-.1.4-.4.9-.8l1.8-1.6 2.3-2.1a26.1 26.1 0 0 0 2.3-2.4c.6-.9 1.2-1.7 1.7-2.6a4.7 4.7 0 0 0 .7-2.5 3.6 3.6 0 0 0-1.1-2.6 13.5 13.5 0 0 0-2.7-2l-3.1-1.4-2.5-.8-1.3-8.8a13.8 13.8 0 0 0-.6-2.6 10.8 10.8 0 0 0-1-2.7 6.7 6.7 0 0 0-1.7-2 3.9 3.9 0 0 0-2.6-.9 12.3 12.3 0 0 0-3.5.5 16.6 16.6 0 0 0-3.1 1.4l-1.6 1-2.4 1.5-2.9 1.6-2.9 1.7-2.4 1.6c-.7.4-1.3 1.1-1.6 1.1h-1l-1.6-.2-2-.4a3.1 3.1 0 0 1-1.4-.7c-.4-.3-.3-.8-.3-1.3V119c0-.6-.2-.9 0-.9h1.6s-.1-.1 0-.4a2.5 2.5 0 0 1 .1-.8c.1-.3.1-.5.2-.8v-.5l-.8-.8-.8-.5a1.3 1.3 0 0 1-.7-.6 1.7 1.7 0 0 1-.3-1.2 2.6 2.6 0 0 1 .3-1.1 3.9 3.9 0 0 1 .6-1.1c.3-.4.3-.7.6-.9l.8-.3v.7c0 .5.4 1 .5 1.5a1.4 1.4 0 0 0 1.2.7 2.1 2.1 0 0 0 1.1-.5l.9-1.1a7.6 7.6 0 0 0 .6-1.6c.1-.4.2.3.2-1.3H25c-.3 0-.5-.2-.9-.5a5.3 5.3 0 0 1-1-.6l-.9-.8a1.8 1.8 0 0 1-.4-1 4.1 4.1 0 0 1 1.1-3 6.4 6.4 0 0 1 2.5-1.8 15.8 15.8 0 0 1 3.1-.9l2.7-.8 2.2-.9 3.2-1.5 3.2-1.7a8.8 8.8 0 0 1 2.1-1h13.2a6.9 6.9 0 0 1 3.7 1 11.3 11.3 0 0 1 3 2.4 19.1 19.1 0 0 1 2.4 3.2c.8 1.1 1.5 2.2 2.3 3.2a12.9 12.9 0 0 0 2.1 2.4 3.6 3.6 0 0 0 2.4 1c.4 0 .7-.1.8-.4a.9.9 0 0 1 .8-.4 4 4 0 0 1 1.5.3l1.4.7 1.5.7a4 4 0 0 0 1.5.3l4-.2 3.9-.4 4-.5 4-.2a52.7 52.7 0 0 1 7 .4 30.3 30.3 0 0 1 7 1.5c1.6.5 3.2 1.2 4.9 1.9l4.9 2.1a42 42 0 0 0 5 1.7 18.8 18.8 0 0 0 5.3.7h2.5l12.4-2.6c4.1-.9 8.2-1.6 12.4-2.3s8.2-1.1 12.4-1.5 8.4-.5 12.7-.5h8.5c1.8.1 3.4.7 4.9.9l35.1 7h11.3c-.8 0-1.8 1-3 1.3a13.3 13.3 0 0 1-4 .2z"/></symbol></svg>