<svg id="Layer_1" data-name="Layer 1" xmlns="http://www.w3.org/2000/svg" width="256" height="256" viewBox="0 0 256 256"><title>micropachycephalosaurus</title><path d="M131.7,150c-.3,0-.4.2-.4.6h-.1c-.3,0-.4.1-.4.4s.1.6.4.6.4-.2.4-.6h.1c.3,0,.5-.1.5-.4S132,150,131.7,150Z"/><path d="M133.1,149.2a3,3,0,0,0-.8.8h.3a1.9,1.9,0,0,0,1-.3,2.4,2.4,0,0,0,.9-.8h-.3A2.3,2.3,0,0,0,133.1,149.2Z"/><path d="M136.1,146.7c-.3,0-.4.2-.4.6h-.2c-.2,0-.4.1-.4.5H135c-.3,0-.5.2-.5.6a.5.5,0,0,0,1,0h0c.3,0,.5-.2.5-.6h.1a.5.5,0,0,0,.5-.5C136.6,146.9,136.4,146.7,136.1,146.7Z"/><path d="M158.5,141l-1.3,1.4c.3.5.5.9.8,1l1.1.2a1.9,1.9,0,0,0,1.4-.5,5.2,5.2,0,0,0,1-1.1,10.1,10.1,0,0,0,.7-1.5c.2-.5.4-1.1.5-1.1h-3.3C159.2,139.4,158.9,140.4,158.5,141Z"/><path d="M127.3,5A122.7,122.7,0,1,0,250,127.7,122.6,122.6,0,0,0,127.3,5Zm92,72.8a3.3,3.3,0,0,1-1.5.3h-3.6a41.1,41.1,0,0,0-5,1.2,14.2,14.2,0,0,0-3.5,1.5,8.3,8.3,0,0,0-2.4,2.1,15.8,15.8,0,0,0-1.7,2.9,22.1,22.1,0,0,0-1.4,3.7c-.5,1.4-1,3.1-1.6,4.9s-.8,2.3-1.2,3.3l-1.2,3.1c-.4,1-.9,2-1.4,3l-1.7,3.1a23,23,0,0,1-2.6,4l-2.8,3.5-3,3.4-3,3.7a7.9,7.9,0,0,0-1.3,2.6,18.6,18.6,0,0,1-1,2.5,6.7,6.7,0,0,1-1.3,2.1,4.7,4.7,0,0,1-2.4,1.5,3.1,3.1,0,0,1-1.3.6l-1.9.6a15.2,15.2,0,0,1-2,.6l-1.3.4a3,3,0,0,1,.2,2,2,2,0,0,1-.9.9l-1.1.5a1.5,1.5,0,0,0-.9,1l-2.2,6.5a2.1,2.1,0,0,1-1,1.4,5.6,5.6,0,0,1-1.7.9h-1.9a9.7,9.7,0,0,1-1.8-.1h-.8c-.5,0-.9.2-1.1,0s-.4-.3-.4-.8a.4.4,0,0,1,.1-.3l.2-.3.2-.3c.1-.1.1-.2.1-.4h0a16.6,16.6,0,0,0-3.3,1.6l-3.3,1.9a35.3,35.3,0,0,1-3.2,2.1,26.9,26.9,0,0,1-3.2,1.9l-.9.5-1.1.5a3.6,3.6,0,0,0-.9.8,1.4,1.4,0,0,0-.5,1v.5l1.7,1.6,1.9,1.7,2,1.5a8.2,8.2,0,0,0,2,1.2l1.7.7,1.9.5,1.8.6a5.1,5.1,0,0,1,1.6.9,5.7,5.7,0,0,1,1.3,1.4,13.4,13.4,0,0,1,1.1,1.4,7.6,7.6,0,0,0,1.1,1.4,8.6,8.6,0,0,0,1.4,1.3l1.6.5,2,.7a5.1,5.1,0,0,1,1.8.9,2.1,2.1,0,0,1,.7,1.7v.5l-5.4,1.1-1.1.3a1.8,1.8,0,0,1-1.1.3h-.6c-.1-.2-.5-.4-1-.7l-1.7-.9-1.7-1-1-.7-.2-.2c0-.2-.1-.3-.3-.5l-.3-.5-.2-.5-2.2-4.3-1.1-.5-1.8-.7-2-.9-2.1-.9-1.7-.8-1.1-.6-2.7-1.5a16.4,16.4,0,0,1-2.5-2.1,8.3,8.3,0,0,1-1.9-2.6,6.3,6.3,0,0,1-1-3l-.6.2-.6.4-.8.6-1.6,1.1-2.1,1.4-2,1.3-1.7,1-.9.6-5.8,3.4a18.8,18.8,0,0,0-4.4,3.3,15.7,15.7,0,0,0-3.5,4.2c-.9,1.7-.7,3.8-2.3,6.4V177a9.3,9.3,0,0,0,1.1,4.3,6.5,6.5,0,0,0,2.1,2.5,7.7,7.7,0,0,0,2.5,1.4l2.5.9a5.6,5.6,0,0,1,1.9.9,5.2,5.2,0,0,1,.7,2H102.4l-.2-.4-.3-.2h-.5l-.6-.3a2.9,2.9,0,0,1-1.2-1.5,12.9,12.9,0,0,1-.5-2.1c0-.8.2-1.5.2-2.3a18.1,18.1,0,0,0,.3-1.9v-1.4a4,4,0,0,1,.3-1.7c.2-.8.3-1.7.5-2.6s.5-2,.8-3.1.5-2.1.7-3,.5-1.8.7-2.6l.4-1.7c.2-.7.4-1.4.6-1.9a11.8,11.8,0,0,1,1-1.9,11.4,11.4,0,0,0,4.3-2.5,23.4,23.4,0,0,0,3.2-3.1l2.8-3.3a13.6,13.6,0,0,1,3.3-3l1.4-.7,2-.8,2.2-.9a13.9,13.9,0,0,0,2.1-1.1,6.4,6.4,0,0,0,1.5-1.3,2,2,0,0,0,.6-1.5v-1.2a2.3,2.3,0,0,0-.6-1.2l-.8-.3-1.1-.5-1.2-.5-.7-.4a8.3,8.3,0,0,1-2-1.1l-2.5-1.9-2.5-1.5a3.7,3.7,0,0,0-1.7-.5h-7.6c-5.7,0-11.4-.1-17,.1s-11.3.2-17.1.2c-4.2,0-8.4-.2-12.4-.4a97.8,97.8,0,0,1-12-1.3,81.5,81.5,0,0,1-11.6-2.8,58.6,58.6,0,0,1-11.3-4.9l-1.4-.7-1.5-.9a5.3,5.3,0,0,1-1.3-1.3,3,3,0,0,1-.5-1.5,5.4,5.4,0,0,1,2,.4,11.7,11.7,0,0,1,2.4.9l2.1.9,1.4.6a47.2,47.2,0,0,0,4.5,1.6l4.9,1.4,4.9,1,4.7.3H73.7l2.5-.3,3.3-.6,3.5-.5,3.3-.6,2.5-.6,6.7-1.3c2.4-.4,4.7-.9,7.1-1.5s4.7-1.3,7-2.1a33.2,33.2,0,0,0,6.4-2.7l3.7-1.7c1.2-.5,2.4-1.1,3.7-1.5l3.8-1.3a23.5,23.5,0,0,1,4-.9h2.7l1.7-.2h1l1.9-.4,3.2-.7,3.9-.8,3.9-.9c1.2-.3,2.3-.9,3.2-1.1s1.5-.7,1.8-.7h6.4c2.6,0,5.1.5,7.6.7s5,.5,7.6.5a10.7,10.7,0,0,0,4.9-1.2,19.5,19.5,0,0,0,4.3-3.4,30.9,30.9,0,0,0,3.8-4.8,59.5,59.5,0,0,0,3.1-5.5,50.1,50.1,0,0,0,2.5-5.3c.7-1.8,1.2-3.3,1.7-4.7s.8-2.3,1.1-3.3.6-2.1.9-3,.8-1.8,1.2-2.6a7.7,7.7,0,0,1,1.7-1.9,7,7,0,0,1,2.5-1.5,12.7,12.7,0,0,1,3.7-.8h3c.7,1.6,1.7.9,2.8,1.3a21.3,21.3,0,0,1,3.5,1.4,15,15,0,0,1,2.8,1.8,2.6,2.6,0,0,1,1.2,2.1,2.1,2.1,0,0,1-.4,1.4A3.1,3.1,0,0,1,219.3,77.8Z"/></svg>