<svg id="Layer_1" data-name="Layer 1" xmlns="http://www.w3.org/2000/svg" width="256" height="256" viewBox="0 0 256 256"><title>velociraptor</title><path d="M127.7,5A122.7,122.7,0,1,0,250.3,127.7,122.7,122.7,0,0,0,127.7,5Zm106,111.9h-7.1c-2.9,0-5.9-.2-8.8-.4l-8.8-1-8.7-.9a88.3,88.3,0,0,0-8.9-.4,139,139,0,0,0-15.7.9,71.1,71.1,0,0,0-15.3,3.6L131,129.3a2.4,2.4,0,0,0-1.2,1.5,17.3,17.3,0,0,0-.8,2.7l-.6,2.7a8.5,8.5,0,0,1-.6,1.9,3.2,3.2,0,0,0,1.3,1.3l2.4,1.1,2.8,1.1L137,143a18,18,0,0,1,2,1.8,4.1,4.1,0,0,1,.8,2.4,1.7,1.7,0,0,1-.5,1.2,3.6,3.6,0,0,1-1.2.8l-1.5.7-1.6.8a5.8,5.8,0,0,0-1.2,1,2.4,2.4,0,0,0-.4,1.5,3.6,3.6,0,0,0,.7,2.4,7,7,0,0,0,1.9,1.5,17.1,17.1,0,0,0,2.3,1.3,6.8,6.8,0,0,1,2.1,1.7,13.5,13.5,0,0,1,1.9,3.3,25.3,25.3,0,0,1,1.2,3.6c.3,1.2.6,2.4.8,3.7s.1,2.5.2,3.8l1.3,1.2v6.9h.8l1,.2,1,.2.5.3a5.4,5.4,0,0,0,.1.8c0,.2-.1.5-.1.9a5.6,5.6,0,0,1-.4,1.2,1.8,1.8,0,0,1-.6.9.8.8,0,0,1-.8.3h-5c-.2,0-.5-.5-1-.8l-1.4-.8-1.5-.8c-.5-.3-.9-.8-1.2-.8h-5.9a4.4,4.4,0,0,1,.6-2.8,3.8,3.8,0,0,1,1.6-1.5,7.4,7.4,0,0,1,2.1-.7l2-.3a3.8,3.8,0,0,0,1.6-.6,1.5,1.5,0,0,0,.6-1.3v-.6l-.9-1.7a13.4,13.4,0,0,0-1.2-2.4,15.8,15.8,0,0,0-1.5-2.4,8.6,8.6,0,0,0-1.5-1.7,4.8,4.8,0,0,0-1.2-.8l-1.8-.9-1.7-1a1.9,1.9,0,0,1-.9-1.1,10.2,10.2,0,0,1-.9-2.8,28.3,28.3,0,0,0-1.1-3.1,7.2,7.2,0,0,0-1.6-2.5,3.9,3.9,0,0,0-2.8-1,22.5,22.5,0,0,0-5.8.8,26.9,26.9,0,0,0-5.6,2.1,32.1,32.1,0,0,0-4.8,3.4,22.7,22.7,0,0,0-3.8,4.4l-.3.2h-.2a.1.1,0,0,1-.1-.1l-.2-.3c0-.2-.1-.4-.1-.6s-.1-.5-.2-.6-.1-.3-.1-.4h-.3a1.3,1.3,0,0,0-1,.4l-.9,1.2-.8,1.2a2.1,2.1,0,0,1-.8,1,2.9,2.9,0,0,1-.6-1.6,7.1,7.1,0,0,1-.1-1.6,9,9,0,0,1,.4-2.8,27.6,27.6,0,0,1,.8-2.7,11.7,11.7,0,0,0,.9-2.4,15.2,15.2,0,0,0,.4-2.7H94.8c0-1.6.2-1.7.6-2.3A7.5,7.5,0,0,1,97,150a7.2,7.2,0,0,1,2-.9l2.1-.3,2.9.2,2.8.5,2.8.4,2.8.2h2.3a3.3,3.3,0,0,0-1.7-1.3l-2.4-.4-2.6-.2a4.4,4.4,0,0,1-2.1-.2l-3.8-2.1h-.3a10.1,10.1,0,0,0-3,0,15.1,15.1,0,0,1-3,.1,8.3,8.3,0,0,1-2.9-.6l-2.6-1.4-2.5-1.3A4.8,4.8,0,0,0,85,142v5.9l1.5-.2,1-.3.9-.5c.3-.2.3-.4.8-.6l.6-.2v2.7l1.9-.7c0,.1.2.3.2.5l.2.5a5.5,5.5,0,0,1-1.3,3.8,28.9,28.9,0,0,1-3.1,2.8,28.1,28.1,0,0,0-4.5-1.3l-4.6-.6v-7.5l-1.7.5-2,1a7.8,7.8,0,0,0-1.8,1.1c-.4.4-.9.8-.9,1.1v6.7a9.3,9.3,0,0,0,2.9-.3,6.7,6.7,0,0,0,1.7-.6,3.3,3.3,0,0,0,1.2-.5,2.7,2.7,0,0,1,1.2-.3h.3a1.5,1.5,0,0,1,.3.7,7.3,7.3,0,0,1,.5,1.2l.3,1.2a5.1,5.1,0,0,1,.2.9,4.6,4.6,0,0,1-.4,1.9,5.9,5.9,0,0,1-1,1.7,3.7,3.7,0,0,1-1.5,1.3,3.2,3.2,0,0,1-1.8.6h-1l-2.9-.4-3.5-.7a12.5,12.5,0,0,1-3.1-1.2,2.5,2.5,0,0,1-1.4-2V148.8c0-.1.4-.4.9-.8l1.8-1.6,2.3-2.1a26.1,26.1,0,0,0,2.3-2.4c.6-.9,1.2-1.7,1.7-2.6a4.7,4.7,0,0,0,.7-2.5,3.6,3.6,0,0,0-1.1-2.6,13.5,13.5,0,0,0-2.7-2L67,130.8l-2.5-.8-1.3-8.8a13.8,13.8,0,0,0-.6-2.6,10.8,10.8,0,0,0-1-2.7,6.7,6.7,0,0,0-1.7-2,3.9,3.9,0,0,0-2.6-.9,12.3,12.3,0,0,0-3.5.5,16.6,16.6,0,0,0-3.1,1.4l-1.6,1-2.4,1.5L43.8,119l-2.9,1.7-2.4,1.6c-.7.4-1.3,1.1-1.6,1.1h-1l-1.6-.2-2-.4a3.1,3.1,0,0,1-1.4-.7c-.4-.3-.3-.8-.3-1.3V119c0-.6-.2-.9,0-.9h1.6s-.1-.1,0-.4a2.5,2.5,0,0,1,.1-.8c.1-.3.1-.5.2-.8v-.5l-.8-.8-.8-.5a1.3,1.3,0,0,1-.7-.6,1.7,1.7,0,0,1-.3-1.2,2.6,2.6,0,0,1,.3-1.1,3.9,3.9,0,0,1,.6-1.1c.3-.4.3-.7.6-.9l.8-.3v.7c0,.5.4,1,.5,1.5a1.4,1.4,0,0,0,1.2.7,2.1,2.1,0,0,0,1.1-.5l.9-1.1a7.6,7.6,0,0,0,.6-1.6c.1-.4.2.3.2-1.3H25c-.3,0-.5-.2-.9-.5a5.3,5.3,0,0,1-1-.6l-.9-.8a1.8,1.8,0,0,1-.4-1,4.1,4.1,0,0,1,1.1-3,6.4,6.4,0,0,1,2.5-1.8,15.8,15.8,0,0,1,3.1-.9l2.7-.8,2.2-.9,3.2-1.5L39.8,94a8.8,8.8,0,0,1,2.1-1H55.1a6.9,6.9,0,0,1,3.7,1,11.3,11.3,0,0,1,3,2.4,19.1,19.1,0,0,1,2.4,3.2c.8,1.1,1.5,2.2,2.3,3.2a12.9,12.9,0,0,0,2.1,2.4,3.6,3.6,0,0,0,2.4,1c.4,0,.7-.1.8-.4a.9.9,0,0,1,.8-.4,4,4,0,0,1,1.5.3l1.4.7,1.5.7a4,4,0,0,0,1.5.3l4-.2,3.9-.4,4-.5,4-.2a52.7,52.7,0,0,1,7,.4,30.3,30.3,0,0,1,7,1.5c1.6.5,3.2,1.2,4.9,1.9l4.9,2.1a42,42,0,0,0,5,1.7,18.8,18.8,0,0,0,5.3.7H131l12.4-2.6c4.1-.9,8.2-1.6,12.4-2.3s8.2-1.1,12.4-1.5,8.4-.5,12.7-.5h8.5c1.8.1,3.4.7,4.9.9l35.1,7h11.3c-.8,0-1.8,1-3,1.3A13.3,13.3,0,0,1,233.7,116.9Z"/></svg>